<?xml version="1.0" encoding="utf-8"?>
<!-- Generator: Adobe Illustrator 26.0.3, SVG Export Plug-In . SVG Version: 6.00 Build 0)  -->
<svg id="Logos"
	xmlns="http://www.w3.org/2000/svg" viewBox="0 0 674.32 159.91">
	<defs>
		<style>
      .cls-1 {
        fill: #231f20;
      }
		</style>
	</defs>
	<g>
		<path class="cls-1" d="M475.2,80.7c-2.66,0-5.48-.81-8.39-2.41l-1.38-.75-6.47,14.23,1.22.64c5.53,3,10.54,4.28,16.7,4.28,11.46,0,18.08-5.58,23.64-19.89,0-.01,27.67-71.57,27.67-71.57h-19.32s-14.3,40.96-16.56,47.42c-2.46-6.39-18.16-47.42-18.16-47.42h-19.74s28.3,67.87,28.79,69.07c-2.42,5.3-4.8,6.4-8.01,6.4Z"/>
		<path class="cls-1" d="M295.92,62.7l.94-1.03-11.4-11.23-1.05,1.05c-5.38,5.54-10.49,8-16.49,8-10.7,0-18.77-8.7-18.77-20.31v-.25c0-11.25,7.91-20.05,18.01-20.05,7.82,0,12.55,3.83,16.49,7.98l1.06,1.14,11.6-12.5-.9-1c-7.62-8.4-16.29-12.13-28.12-12.13-20.5,0-36.55,16.16-36.55,36.81v.27c0,20.43,16,36.43,36.43,36.43,14.95,0,22.93-6.66,28.76-13.18Z"/>
		<path class="cls-1" d="M338.04,75.62c21.16,0,37.72-16.11,37.72-36.68v-.26c0-20.51-16.44-36.57-37.45-36.57s-37.6,16.17-37.6,36.83v.26c0,20.41,16.4,36.42,37.33,36.42ZM319.15,38.68c0-11.63,7.94-20.06,18.89-20.06s19.3,8.73,19.3,20.33v.26c0,9.94-6.55,20.04-19.03,20.04-10.76,0-19.16-8.91-19.16-20.3v-.26Z"/>
		<path class="cls-1" d="M200.31,4.53l.07,1.44v38.69c0,7.87-5.1,13.35-12.45,13.35s-12.75-5.82-12.75-13.55V4.53h-19.39v40.13c0,17.52,14.03,29.04,31.95,29.04,5.48,0,10.6-2.03,15.07-4.31.43-.22.84-.44,1.26-.68l.21,3.57v1.36h15.51V4.53h-19.48Z"/>
		<path class="cls-1" d="M405.7,73.7l-.09-1.43v-38.69c0-7.88,5.1-13.36,12.45-13.36s12.76,5.82,12.76,13.55v39.93h19.39v-40.12c0-17.54-14.03-29.05-31.97-29.05-5.48,0-10.59,2.03-15.05,4.32-.44.22-.85.44-1.28.68l-.2-3.58v-1.41h-15.52v69.17h19.51Z"/>
		<path class="cls-1" d="M124.27,5.68v2.99c-5.58-3.17-12.21-6.43-19.49-6.43-21.49,0-38.35,14.98-38.35,36.04v.28c0,20.84,16.74,35.65,38.08,35.65,7.28,0,14.02-3.35,19.76-6.63v4.84h17.33V4.03h-17.33v1.65ZM105.43,59c-11.63,0-21.07-9.28-21.07-20.72s9.44-20.71,21.07-20.71,21.08,9.27,21.08,20.71-9.43,20.72-21.08,20.72Z"/>
		<path class="cls-1" d="M32.75,14.21c4.72,0,11.24,2.27,19.34,6.75l.65.36,7.26-13.14-.59-.38C51.52,2.92,41.58,0,32.85,0,19.42,0,5.87,7.18,5.87,23.25v.27c0,13.14,12.09,18.37,22.61,21.46,6.97,2.06,13.78,4.5,13.78,9.68v.28c0,2.23-1,8.07-10.27,8.07-6.51,0-14.76-3.81-23.27-9.54l-.61-.43L0,65.51l.56.41c9.07,6.69,20.02,11.25,30.87,11.25,18.22,0,28.26-8.84,28.26-23.35v-1.47c0-9.19-7.35-16.09-22.47-21.13h.01-.01l-1.84-.62c-7.02-2.33-12.09-4.03-12.09-9.36v-.29c0-3.25,2.96-6.73,9.46-6.73Z"/>
	</g>
	<path class="cls-1" d="M673.37,84.5v-.03c-5.68-3.85-5.68-3.87-9.54-6.22-37.15-22.52-56.37-25.17-74.37-19.14-14,4.69-38.09,23.74-38.09,23.74-22,14.67-44.24,38.92-96.36,36.09-48.54-2.62-148.48-28.58-149.7-28.92-1.21-.34-2.47.55-2.1,1.98.29,1.07,2.71,6.38,2.71,6.38.31.72.95.9,1.25,1.03,39.83,15.99,161.21,60.5,204.12,60.5,51.14,0,93.44-70.99,138.92-70.99,14.12,0,17.7.51,19.74.53,1.99.17,3.71-.44,4.2-2.21,0,0,.7-1.48-.79-2.74ZM537.42,138.39h0ZM541.42,130.01c-.56,2.88-2.22,5.33-4.66,6.96h0c-2.44,1.62-5.36,2.19-8.21,1.62-2.87-.57-5.35-2.23-6.96-4.66-3.36-5.04-1.98-11.84,3.04-15.19,5.01-3.33,11.84-1.96,15.18,3.06,1.61,2.43,2.19,5.36,1.61,8.22ZM568.98,115.54c-5.05,3.34-11.83,1.96-15.2-3.05-3.33-5.04-1.97-11.85,3.06-15.19,5.04-3.33,11.84-1.96,15.17,3.05,1.23,1.85,1.84,3.95,1.85,6.01,0,3.56-1.71,7.05-4.88,9.17ZM605.85,87.14c-.58,2.87-2.25,5.34-4.67,6.95-2.44,1.63-5.35,2.2-8.22,1.62-2.85-.56-5.33-2.22-6.96-4.66-1.62-2.44-2.18-5.35-1.62-8.22.58-2.87,2.24-5.34,4.67-6.96,2.42-1.62,5.35-2.19,8.2-1.62,2.88.57,5.35,2.23,6.96,4.67,1.63,2.43,2.21,5.34,1.63,8.22Z"/>
</svg>

